<svg height='100px' width='100px'  fill="#000000" xmlns:xlink="http://www.w3.org/1999/xlink" xmlns="http://www.w3.org/2000/svg" stroke-width="0.501" stroke-linejoin="bevel" fill-rule="evenodd" version="1.1" overflow="visible" viewBox="0 0 96 96" x="0px" y="0px"><g fill="none" stroke="black" font-family="Times New Roman" font-size="16" transform="scale(1 -1)"><g transform="translate(0 -96)"><g><path d="M 1.354,10.52 L 1.354,21.688 C 1.354,24.073 2.941,26.089 5.116,26.738 C 3.612,31.626 2.37,37.321 1.843,41.724 L 1.583,45.004 L 1.578,45.093 L 1.371,49.107 C 1.536,53.174 2.797,57.09 4.824,60.468 C 5.376,61.39 6,62.273 6.689,63.11 L 8.312,64.822 L 6.776,65.924 C 1.901,70.102 0.243,76.636 2.078,82.677 C 4.128,89.419 12,94.607 19.239,92.072 C 22.428,90.959 24.641,88.783 25.815,86.28 C 26.934,83.899 27.166,81.068 26.182,78.635 C 25.611,77.223 24.545,75.784 22.837,74.932 C 20.687,73.856 18.07,74.73 16.996,76.88 C 16.289,78.291 16.422,79.903 17.206,81.148 L 18.061,82.097 L 17.93,82.58 C 17.738,82.989 17.318,83.518 16.364,83.852 C 14.544,84.488 11.234,82.845 10.412,80.143 C 9.358,76.677 10.585,72.615 15.19,70.993 L 17.24,70.489 L 20.624,71.49 C 24.363,72.301 28.397,72.3 32.462,71.263 C 41.579,68.938 42.537,69.621 43.689,72.137 L 43.72,72.198 C 45.131,74.658 47.738,84.303 51.564,83.578 C 51.699,83.553 51.825,83.49 51.927,83.398 C 55.365,80.292 55.595,75.281 63.459,75.405 C 70.103,75.51 69.956,79.855 73.573,83.148 C 73.778,83.335 74.07,83.393 74.331,83.299 C 79.584,81.41 81.038,70.86 81.955,66.692 L 82.557,63.253 C 82.871,59.538 82.424,55.41 82.424,53.187 L 82.42,53.118 C 81.687,45.128 77.775,35.312 71.388,30.469 L 69.756,29.347 C 69.704,29.221 69.617,29.108 69.5,29.025 C 69.486,29.015 69.473,29.006 69.46,28.997 L 69.55,27.825 C 69.575,27.55 69.603,27.263 69.634,26.959 L 90.189,26.959 C 93.098,26.959 95.46,24.597 95.46,21.688 L 95.46,10.52 C 95.46,7.611 93.098,5.25 90.189,5.25 L 6.624,5.25 C 3.715,5.25 1.354,7.611 1.354,10.52 Z M 93.96,10.52 L 93.96,21.688 C 93.96,23.768 92.269,25.459 90.189,25.459 L 69.8,25.459 C 69.986,24.361 70.753,21.97 71.032,20.062 C 71.041,20.035 71.045,20.01 71.049,19.986 C 71.343,19.786 71.521,19.527 71.521,19.245 L 71.521,19.101 C 71.521,18.849 71.381,18.617 71.145,18.427 C 71.126,17.998 71.059,17.572 70.848,17.127 C 70.821,17.002 70.77,16.897 70.703,16.806 C 70.695,16.737 70.66,16.682 70.623,16.629 C 71.163,16.424 71.521,16.071 71.521,15.67 L 71.521,15.526 C 71.521,14.893 70.632,14.378 69.54,14.378 L 65.246,14.378 C 64.154,14.378 63.267,14.893 63.267,15.526 L 63.267,15.67 C 63.267,16.249 64.009,16.729 64.972,16.807 C 64.944,16.824 64.916,16.841 64.891,16.868 C 64.387,17.173 63.9,17.543 63.436,17.969 C 63.355,18.024 63.285,18.087 63.221,18.16 C 62.693,18.644 62.29,19.075 61.911,19.54 C 61.831,19.619 61.764,19.701 61.704,19.79 C 61.231,20.369 60.878,20.859 60.554,21.368 C 60.483,21.462 60.424,21.553 60.375,21.649 C 60.225,21.872 60.165,21.971 60.106,22.071 L 60.109,22.063 C 59.833,22.523 59.576,22.993 59.338,23.466 L 58.976,24.256 L 56.723,23.539 L 54.294,22.902 L 54.278,22.564 C 54.276,22.376 54.282,22.16 54.304,21.891 C 54.328,21.484 54.371,20.966 54.419,20.392 L 55.4,20.392 C 56.492,20.392 57.381,19.877 57.381,19.244 L 57.381,19.1 C 57.381,18.467 56.492,17.952 55.4,17.952 L 54.61,17.952 C 54.633,17.573 54.652,17.193 54.663,16.818 L 55.399,16.818 C 56.491,16.818 57.379,16.303 57.379,15.669 L 57.379,15.526 C 57.379,14.892 56.491,14.377 55.399,14.377 L 54.581,14.377 C 54.579,14.368 54.578,14.36 54.551,14.228 C 54.549,14.214 54.547,14.199 54.543,14.186 C 54.506,13.847 54.44,13.52 54.351,13.212 L 55.397,13.212 C 56.489,13.212 57.377,12.698 57.377,12.064 L 57.377,11.92 C 57.377,11.287 56.489,10.772 55.397,10.772 L 51.104,10.772 C 50.012,10.772 49.123,11.287 49.123,11.92 L 49.122,12.027 C 49.102,12.041 49.082,12.055 49.066,12.081 C 48.559,12.448 48.085,12.921 47.647,13.473 C 47.608,13.512 47.573,13.557 47.544,13.612 C 47.084,14.194 46.708,14.784 46.366,15.423 C 46.325,15.487 46.289,15.553 46.261,15.629 C 45.875,16.353 45.577,17.021 45.315,17.717 C 45.277,17.799 45.247,17.88 45.224,17.965 C 45.096,18.29 45.029,18.483 44.964,18.677 L 44.963,18.678 C 44.782,19.216 44.619,19.762 44.475,20.312 L 44.243,21.322 L 42.566,21.228 C 41.798,21.203 41.036,21.197 40.284,21.21 C 39.02,21.23 37.743,21.272 36.458,21.344 L 33.329,21.594 L 33.297,21.314 C 33.246,20.971 33.181,20.622 33.096,20.279 L 33.09,20.238 C 32.102,16.105 29.629,16.994 28.126,17.905 C 28.065,17.941 28.005,17.98 27.945,18.033 C 27.934,18.034 27.921,18.042 27.909,18.05 C 27.907,18.051 27.905,18.052 27.903,18.053 C 27.666,17.986 27.398,17.952 27.118,17.952 L 22.825,17.952 C 21.733,17.952 20.844,18.467 20.844,19.1 L 20.844,19.244 C 20.844,19.877 21.733,20.392 22.825,20.392 L 25.722,20.392 C 25.409,20.854 25.115,21.337 24.901,21.771 C 24.835,21.869 24.78,21.961 24.726,22.053 L 24.564,22.337 C 24.347,22.692 24.312,22.756 24.278,22.82 L 24.076,23.191 L 22.641,23.593 C 21.7,23.877 20.769,24.194 19.85,24.547 L 20.664,24.288 L 19.864,24.543 L 19.612,24.658 C 19.255,24.781 19.229,24.791 19.204,24.802 L 17.783,25.418 C 17.62,25.375 17.443,25.386 17.284,25.459 L 16.086,25.459 L 16.052,25.328 L 16.015,25.184 C 16.014,25.182 16.014,25.18 16.014,25.179 C 16.013,25.177 16.013,25.176 16.013,25.174 C 15.955,24.915 15.911,24.565 15.875,24.119 C 15.734,22.629 15.626,20.239 15.217,18.527 C 15.14,18.205 15.046,17.894 14.933,17.6 C 14.881,17.429 14.813,17.262 14.644,16.987 C 14.612,16.897 14.569,16.822 14.521,16.754 C 14.491,16.646 14.436,16.56 14.377,16.478 C 14.734,16.271 14.956,15.984 14.956,15.669 L 14.956,15.526 C 14.956,14.892 14.068,14.377 12.976,14.377 L 8.683,14.377 C 7.591,14.377 6.702,14.892 6.702,15.526 L 6.702,15.669 C 6.702,16.303 7.591,16.818 8.683,16.818 L 9.701,16.818 C 9.661,16.854 9.621,16.893 9.581,16.963 C 9.366,17.152 9.147,17.42 8.925,17.762 C 8.86,17.818 8.815,17.884 8.77,17.952 L 8.684,17.952 C 7.592,17.952 6.703,18.467 6.703,19.1 L 6.703,19.244 C 6.703,19.63 7.036,19.974 7.546,20.182 C 7.5,20.278 7.455,20.376 7.412,20.494 C 7.375,20.576 7.337,20.659 7.301,20.754 C 6.931,21.565 6.665,22.228 6.41,22.943 C 6.29,23.245 6.171,23.569 6.055,23.911 C 5.951,24.181 5.912,24.292 5.874,24.405 L 5.796,24.638 C 5.722,24.857 5.647,25.078 5.574,25.302 L 5.489,25.284 C 3.962,24.803 2.854,23.372 2.854,21.688 L 2.854,10.52 C 2.854,8.44 4.544,6.75 6.624,6.75 L 90.189,6.75 C 92.269,6.75 93.96,8.44 93.96,10.52 Z M 75.481,12.718 L 75.481,21.814 C 75.481,23.22 76.623,24.365 78.032,24.365 L 87.135,24.365 C 88.543,24.365 89.686,23.22 89.686,21.814 L 89.686,12.718 C 89.686,11.309 88.543,10.167 87.135,10.167 L 78.032,10.167 C 76.623,10.167 75.481,11.309 75.481,12.718 Z M 6.7,11.92 L 6.7,12.064 C 6.7,12.698 7.589,13.212 8.681,13.212 L 12.975,13.212 C 14.067,13.212 14.954,12.698 14.954,12.064 L 14.954,11.92 C 14.954,11.287 14.067,10.772 12.975,10.772 L 8.681,10.772 C 7.589,10.772 6.7,11.287 6.7,11.92 Z M 20.841,11.92 L 20.841,12.064 C 20.841,12.698 21.73,13.212 22.822,13.212 L 27.115,13.212 C 28.207,13.212 29.095,12.698 29.095,12.064 L 29.095,11.92 C 29.095,11.287 28.207,10.772 27.115,10.772 L 22.822,10.772 C 21.73,10.772 20.841,11.287 20.841,11.92 Z M 34.982,11.92 L 34.982,12.064 C 34.982,12.698 35.871,13.212 36.963,13.212 L 41.256,13.212 C 42.348,13.212 43.236,12.698 43.236,12.064 L 43.236,11.92 C 43.236,11.287 42.348,10.772 41.256,10.772 L 36.963,10.772 C 35.871,10.772 34.982,11.287 34.982,11.92 Z M 63.264,11.921 L 63.264,12.065 C 63.264,12.698 64.152,13.213 65.244,13.213 L 69.538,13.213 C 70.63,13.213 71.519,12.698 71.519,12.065 L 71.519,11.921 C 71.519,11.288 70.63,10.773 69.538,10.773 L 65.244,10.773 C 64.152,10.773 63.264,11.288 63.264,11.921 Z M 88.186,12.718 L 88.186,21.814 C 88.186,22.393 87.714,22.865 87.135,22.865 L 78.032,22.865 C 77.452,22.865 76.981,22.393 76.981,21.814 L 76.981,12.718 C 76.981,12.138 77.452,11.667 78.032,11.667 L 87.135,11.667 C 87.714,11.667 88.186,12.138 88.186,12.718 Z M 51.967,12.541 C 52.238,12.561 52.393,12.675 52.498,12.792 C 52.854,13.188 53.086,14.022 53.153,15.272 C 53.224,16.59 53.108,18.088 52.987,19.461 C 52.881,20.596 52.771,21.654 52.779,22.575 C 52.781,22.878 52.797,23.205 52.824,23.547 C 52.85,23.872 53.082,24.143 53.399,24.217 C 55.26,24.656 57.093,25.182 58.855,25.799 C 58.877,25.819 58.907,25.826 58.937,25.833 C 61.675,26.365 65.643,28.292 67.981,29.807 C 68.041,29.945 68.142,30.064 68.274,30.147 C 69.055,30.634 69.792,31.141 70.481,31.664 C 75.672,35.598 79.232,43.246 80.517,50.287 L 80.926,53.249 L 81.026,56.085 C 81.188,59.316 81.4,63.341 80.508,66.316 L 80.494,66.37 C 79.555,70.623 78.396,78.146 75.283,80.982 L 74.222,81.64 L 73.64,80.996 C 71.545,78.296 69.916,74.006 63.482,73.906 C 55.93,73.787 53.957,78.502 51.85,81.248 L 51.126,82.056 L 50.434,81.846 C 48.681,80.566 46.679,75.103 45.523,72.488 L 45.045,71.501 L 45.02,71.451 L 44.362,70.261 C 42.63,67.725 39.849,67.831 32.091,69.81 C 26.984,71.113 21.932,70.681 17.525,69.014 C 17.404,68.968 17.273,68.955 17.145,68.974 C 9.8,70.108 7.523,75.797 8.977,80.58 C 9.997,83.936 14.083,86.239 16.859,85.267 C 18.197,84.799 18.927,83.988 19.289,83.217 C 19.494,82.778 19.572,82.381 19.588,82.069 L 19.589,82.006 L 19.581,81.745 C 19.574,81.495 19.442,81.266 19.231,81.133 L 19.114,81.059 L 18.473,80.347 C 17.961,79.531 17.875,78.475 18.337,77.551 C 19.041,76.141 20.758,75.569 22.166,76.273 C 23.48,76.929 24.326,78.048 24.791,79.198 C 25.595,81.185 25.427,83.58 24.458,85.643 C 23.452,87.786 21.547,89.678 18.744,90.657 C 12.461,92.856 5.365,88.328 3.513,82.24 C 1.602,75.949 3.85,69.136 9.829,65.575 C 10.26,65.318 10.322,64.717 9.952,64.378 C 8.436,62.987 7.138,61.411 6.111,59.697 C 3.567,55.456 2.319,50.341 3.069,45.221 L 3.076,45.132 C 3.198,40.344 4.885,32.339 6.865,26.193 C 8.235,21.925 9.693,18.775 10.797,17.85 C 11.092,17.602 11.349,17.418 11.567,17.291 C 11.56,17.284 11.619,17.248 11.664,17.238 C 11.847,17.127 12.003,17.059 12.13,17.026 C 12.28,16.964 12.409,16.946 12.524,16.952 C 12.651,16.954 12.742,16.984 12.797,17.018 C 12.812,17.022 12.826,17.029 12.841,17.037 C 13.164,17.231 13.5,17.8 13.758,18.876 C 13.922,19.562 14.028,20.323 14.108,21.094 C 14.267,22.712 14.284,24.306 14.549,25.502 C 14.584,25.666 14.631,25.841 14.709,26.103 C 14.726,26.162 14.772,26.303 14.82,26.447 C 14.823,26.457 14.827,26.468 14.833,26.485 C 14.868,26.587 14.906,26.696 14.947,26.808 C 13.616,27.462 12.215,28.047 10.942,28.926 C 10.601,29.161 10.515,29.629 10.75,29.969 C 10.985,30.31 11.453,30.396 11.793,30.161 C 13.077,29.274 14.6,28.677 16.079,27.918 C 16.138,27.903 16.196,27.88 16.253,27.85 C 16.884,27.505 17.526,27.182 18.178,26.882 C 19.392,26.318 20.638,25.828 20.669,25.841 C 22.26,25.283 22.613,25.171 22.092,25.34 C 23.462,24.911 23.96,24.769 24.461,24.636 C 24.575,24.657 24.696,24.654 24.815,24.621 C 27.286,23.908 29.811,23.345 32.369,23.087 C 32.485,23.137 32.614,23.159 32.749,23.145 C 35.277,22.876 37.814,22.75 40.309,22.709 C 41.762,22.685 43.258,22.735 44.773,22.854 C 45.152,22.884 45.494,22.625 45.567,22.251 C 46.426,17.89 48.395,13.921 50.646,12.854 C 50.917,12.724 51.151,12.638 51.345,12.594 C 51.377,12.575 51.448,12.558 51.503,12.564 C 51.645,12.524 51.766,12.514 51.863,12.527 C 51.925,12.515 51.977,12.52 51.967,12.541 Z M 20.843,15.526 L 20.843,15.669 C 20.843,16.303 21.732,16.818 22.824,16.818 L 27.117,16.818 C 28.209,16.818 29.097,16.303 29.097,15.669 L 29.097,15.526 C 29.097,14.892 28.209,14.377 27.117,14.377 L 22.824,14.377 C 21.732,14.377 20.843,14.892 20.843,15.526 Z M 34.984,15.526 L 34.984,15.669 C 34.984,16.303 35.873,16.818 36.965,16.818 L 41.258,16.818 C 42.35,16.818 43.238,16.303 43.238,15.669 L 43.238,15.526 C 43.238,14.892 42.35,14.377 41.258,14.377 L 36.965,14.377 C 35.873,14.377 34.984,14.892 34.984,15.526 Z M 69.023,17.219 C 69.153,17.262 69.24,17.321 69.279,17.374 C 69.32,17.402 69.354,17.437 69.384,17.475 C 69.593,17.766 69.706,18.338 69.622,19.286 C 69.495,20.691 69.01,22.335 68.658,23.697 C 68.499,24.303 68.369,24.849 68.302,25.321 C 68.292,25.392 68.284,25.457 68.278,25.521 C 68.255,25.73 68.233,25.936 68.213,26.129 C 68.211,26.139 68.21,26.15 68.208,26.175 C 68.135,26.864 68.072,27.489 68.022,28.067 C 65.889,26.786 62.924,25.363 60.429,24.652 C 60.703,24.067 61.006,23.493 61.342,22.945 C 61.312,22.973 61.398,22.827 61.495,22.691 C 61.946,21.933 62.454,21.217 63.001,20.579 C 62.973,20.592 63.065,20.482 63.163,20.384 C 63.717,19.724 64.312,19.145 64.928,18.678 C 64.911,18.675 64.979,18.622 65.049,18.578 C 65.701,18.076 66.375,17.696 67.053,17.465 C 67.416,17.34 67.724,17.259 67.979,17.216 C 67.979,17.206 68.046,17.194 68.092,17.2 C 68.308,17.16 68.483,17.15 68.621,17.161 C 68.784,17.154 68.912,17.178 69.023,17.219 Z M 34.985,19.1 L 34.985,19.244 C 34.985,19.877 35.874,20.392 36.966,20.392 L 41.259,20.392 C 42.351,20.392 43.24,19.877 43.24,19.244 L 43.24,19.1 C 43.24,18.467 42.351,17.952 41.259,17.952 L 36.966,17.952 C 35.874,17.952 34.985,18.467 34.985,19.1 Z M 31.064,19.249 C 31.455,19.773 31.687,20.647 31.827,21.636 C 29.88,21.855 27.966,22.237 26.095,22.716 C 25.924,22.949 26.094,22.648 26.289,22.382 C 26.923,21.337 27.639,20.308 28.308,19.668 C 28.384,19.542 28.5,19.452 28.616,19.394 C 28.625,19.382 28.665,19.35 28.702,19.323 C 30.093,18.486 30.678,18.733 31.064,19.249 Z M 69.66,29.281 L 69.756,29.347 L 69.66,29.281 Z M 74.721,52.724 L 70.71,54.177 C 70.321,54.318 70.119,54.749 70.26,55.138 C 70.401,55.527 70.832,55.729 71.221,55.588 L 75.232,54.135 C 75.621,53.994 75.823,53.563 75.682,53.174 C 75.541,52.785 75.11,52.583 74.721,52.724 Z M 49.521,53.535 C 49.38,53.924 49.582,54.355 49.971,54.496 L 53.982,55.948 C 54.371,56.089 54.802,55.887 54.943,55.498 C 55.084,55.109 54.882,54.678 54.493,54.537 L 50.482,53.085 C 50.093,52.944 49.662,53.146 49.521,53.535 Z M 65.07,55.038 C 64.233,55.285 63.422,55.787 62.846,56.488 L 62.714,56.663 L 62.666,56.599 C 62.125,55.939 61.39,55.463 60.615,55.227 C 59.015,54.738 57.121,55.241 56.231,57.205 C 56.061,57.582 56.228,58.027 56.605,58.198 C 56.982,58.368 57.427,58.201 57.598,57.824 C 58.139,56.628 59.195,56.361 60.176,56.661 C 61.084,56.938 61.841,57.683 62.016,58.649 L 62.029,58.745 L 62.028,58.794 C 62.029,58.831 62.03,58.868 62.032,58.907 C 61.654,58.982 61.293,59.092 60.977,59.222 C 60.56,59.392 60.134,59.63 59.863,59.935 C 59.587,60.244 59.614,60.718 59.924,60.993 C 60.233,61.269 60.707,61.242 60.982,60.932 C 60.996,60.917 61.046,60.871 61.152,60.805 C 61.253,60.743 61.385,60.676 61.544,60.611 C 61.863,60.48 62.257,60.373 62.663,60.324 C 63.072,60.276 63.461,60.291 63.785,60.378 C 64.103,60.464 64.338,60.613 64.498,60.824 C 64.747,61.155 65.218,61.221 65.548,60.971 C 65.879,60.722 65.945,60.251 65.695,59.921 C 65.293,59.388 64.742,59.083 64.177,58.93 C 63.969,58.874 63.758,58.837 63.546,58.817 C 63.544,58.783 63.541,58.75 63.539,58.718 L 63.53,58.657 L 63.533,58.551 C 63.566,58.143 63.735,57.769 64.005,57.44 C 64.373,56.993 64.918,56.647 65.496,56.476 C 66.08,56.303 66.617,56.33 66.997,56.512 C 67.339,56.676 67.645,57.008 67.736,57.682 C 67.792,58.093 68.17,58.38 68.58,58.325 C 68.991,58.269 69.278,57.891 69.223,57.481 C 69.069,56.352 68.483,55.56 67.644,55.159 C 66.841,54.775 65.903,54.792 65.07,55.038 Z M 75.7,55.498 L 71.476,56.088 C 71.066,56.145 70.779,56.524 70.837,56.934 C 70.894,57.344 71.273,57.631 71.683,57.573 L 75.907,56.983 C 76.317,56.926 76.604,56.547 76.546,56.137 C 76.489,55.727 76.11,55.44 75.7,55.498 Z M 48.656,56.497 C 48.598,56.907 48.885,57.286 49.295,57.343 L 53.519,57.933 C 53.929,57.991 54.308,57.704 54.365,57.294 C 54.423,56.884 54.136,56.505 53.726,56.448 L 49.502,55.858 C 49.092,55.8 48.713,56.087 48.656,56.497 Z M 47.91,63.891 C 47.91,66.169 49.529,68.071 51.678,68.511 C 51.357,68.54 51.079,68.775 51.012,69.107 L 50.507,71.558 C 50.423,71.964 50.685,72.361 51.09,72.444 C 51.496,72.528 51.893,72.266 51.976,71.861 L 52.481,69.41 C 52.554,69.056 52.365,68.71 52.05,68.572 C 52.238,68.595 52.431,68.607 52.628,68.607 C 55.23,68.607 57.345,66.494 57.345,63.891 C 57.345,61.287 55.23,59.175 52.628,59.175 C 50.024,59.175 47.91,61.287 47.91,63.891 Z M 67.975,63.891 C 67.975,66.494 70.09,68.607 72.694,68.607 C 72.802,68.607 72.91,68.603 73.016,68.596 C 72.729,68.747 72.563,69.076 72.633,69.411 L 73.137,71.862 C 73.22,72.267 73.617,72.529 74.023,72.445 C 74.428,72.362 74.69,71.965 74.606,71.559 L 74.102,69.108 C 74.041,68.814 73.817,68.596 73.544,68.53 C 75.741,68.129 77.412,66.203 77.412,63.891 C 77.412,61.287 75.296,59.175 72.694,59.175 C 70.09,59.175 67.975,61.287 67.975,63.891 Z M 51.944,61.6 C 51.944,62.484 52.663,63.204 53.549,63.204 C 54.341,63.204 55.001,62.626 55.131,61.872 C 55.577,62.423 55.845,63.126 55.845,63.891 C 55.845,65.665 54.403,67.107 52.628,67.107 C 50.851,67.107 49.41,65.665 49.41,63.891 C 49.41,62.253 50.635,60.901 52.22,60.7 C 52.045,60.957 51.944,61.266 51.944,61.6 Z M 71.42,61.6 C 71.42,62.484 72.14,63.204 73.025,63.204 C 73.911,63.204 74.631,62.484 74.631,61.6 C 74.631,61.498 74.621,61.399 74.603,61.303 C 75.396,61.889 75.912,62.83 75.912,63.891 C 75.912,65.665 74.469,67.107 72.694,67.107 C 70.917,67.107 69.475,65.665 69.475,63.891 C 69.475,62.5 70.359,61.314 71.597,60.866 C 71.484,61.086 71.42,61.335 71.42,61.6 Z M 52.882,69.594 L 53.242,71.829 C 53.308,72.237 53.693,72.516 54.102,72.45 C 54.51,72.384 54.789,71.999 54.723,71.59 L 54.363,69.355 C 54.297,68.947 53.912,68.668 53.503,68.734 C 53.095,68.8 52.816,69.185 52.882,69.594 Z M 70.751,69.356 L 70.391,71.591 C 70.325,72 70.604,72.385 71.012,72.451 C 71.421,72.517 71.806,72.238 71.872,71.83 L 72.232,69.595 C 72.298,69.186 72.019,68.801 71.611,68.735 C 71.202,68.669 70.817,68.948 70.751,69.356 Z" fill-rule="evenodd" fill="#000000" stroke="none" stroke-width="0.5" marker-start="none" marker-end="none" stroke-miterlimit="79.8403193612775"></path></g></g></g></svg>